<svg width="144" height="144" viewBox="0 0 144 144" fill="none" xmlns="http://www.w3.org/2000/svg">
<path d="M23.2755 0H103.707C104.872 0.681349 106.889 2.84764 107.915 3.86476L114.145 10.0465L122.017 17.8085C122.816 18.5946 126.631 22.1719 126.888 22.9236C127.134 23.642 127.036 27.4782 127.037 28.483L127.036 39.2583L127.034 64.8238C127.033 68.9404 127.033 73.0575 127.041 77.1736C127.044 78.7704 126.544 79.4208 125.03 79.8518C125.051 80.7715 125.027 81.746 125.025 82.6706C125.023 83.3702 125.077 84.6373 124.958 85.2968C126.356 85.6427 127.003 86.1476 127.031 87.6748C127.054 88.9172 127.042 90.1617 127.04 91.4048L127.034 98.1675L127.036 119.22L127.036 130.825C127.036 135.842 127.912 140.977 122.348 143.429C121.876 143.637 121.108 143.757 120.716 144H23.3693C22.7753 143.769 22.1314 143.614 21.5148 143.353C19.7 142.578 18.2634 141.119 17.5158 139.293C16.934 137.835 16.9466 136.514 16.9532 134.978C16.9616 133.024 16.9593 131.068 16.9594 129.115L16.9596 114.532L16.9593 70.4939L16.9587 28.5668L16.9559 14.8383C16.9553 12.4112 16.9414 9.96476 16.9722 7.53785C16.9854 6.49449 17.2105 5.42278 17.6323 4.4656C18.3615 2.77343 19.706 1.42129 21.3941 0.682632C22.0196 0.407309 22.6401 0.246191 23.2755 0Z" fill="#F8F9F9"/>
<path d="M23.2755 0H103.707C104.872 0.681349 106.889 2.84764 107.915 3.86476L114.145 10.0465L122.017 17.8085C122.816 18.5946 126.631 22.1719 126.888 22.9236C127.134 23.642 127.036 27.4782 127.037 28.483L127.036 39.2583L127.034 64.8238C127.033 68.9404 127.033 73.0575 127.041 77.1736C127.044 78.7704 126.544 79.4208 125.03 79.8518C122.517 79.297 122.81 78.0469 122.811 75.8946L122.813 72.4894L122.818 61.4433L122.82 25.76L122.463 25.7643C117.901 25.8097 113.311 25.7206 108.749 25.7618C106.519 25.782 104.174 26.0952 102.483 24.3633C101.338 23.1915 101.009 21.9805 101.038 20.3579C101.036 18.8243 101.036 17.2948 101.037 15.7682L101.039 4.22594L53.304 4.22135C53.2403 9.52727 53.3007 14.974 53.3012 20.2913L53.304 24.8247C53.3054 26.1201 53.4763 27.8893 52.7932 29.0149C52.2872 29.8439 51.4664 30.4319 50.5188 30.6443C48.6961 31.0622 46.9139 29.5873 45.4266 28.6561L41.4891 26.1918C40.3427 27.007 35.1128 30.3245 34.0245 30.6217C33.1539 30.8594 32.2021 30.6897 31.4304 30.2353C30.5957 29.7475 30.0006 28.9355 29.7868 27.9926C29.5802 27.0616 29.7101 24.4768 29.6819 23.3388C29.7082 21.846 29.6095 20.3295 29.7055 18.8406C29.792 17.4982 30.65 16.992 31.8233 16.7842C31.8015 14.9713 31.7942 13.1583 31.8014 11.3453C31.1047 11.215 30.5326 11.0329 30.1029 10.4213C29.3636 9.36879 29.6966 5.61795 29.6783 4.22512C28.5913 4.22012 27.4947 4.20644 26.4123 4.21342C24.9799 4.22265 23.3209 4.05577 22.2244 5.1642C21.5813 5.81432 21.2535 6.51251 21.2174 7.42788C21.1544 9.01948 21.1837 10.6545 21.1843 12.2501L21.1856 21.1605L21.186 49.4753L21.1777 135.661C21.1841 138.011 22.0329 139.66 24.6622 139.761C26.3438 139.825 28.0481 139.777 29.733 139.777L39.3773 139.776H69.2397L102.264 139.777L113.226 139.778C115.201 139.778 117.202 139.797 119.176 139.75C120.283 139.724 121.143 139.541 121.925 138.675C122.394 138.163 122.69 137.516 122.771 136.826C122.883 135.909 122.82 133.547 122.819 132.503L122.816 124.084L122.818 95.7727C122.818 94.3861 122.647 87.6586 122.952 86.7649C123.278 85.8108 124.024 85.4564 124.958 85.2968C126.356 85.6427 127.003 86.1476 127.031 87.6748C127.054 88.9172 127.042 90.1617 127.04 91.4048L127.034 98.1675L127.036 119.22L127.036 130.825C127.036 135.842 127.912 140.977 122.348 143.429C121.876 143.637 121.108 143.757 120.716 144H23.3693C22.7753 143.769 22.1314 143.614 21.5148 143.353C19.7 142.578 18.2634 141.119 17.5158 139.293C16.934 137.835 16.9466 136.514 16.9532 134.978C16.9616 133.024 16.9593 131.068 16.9594 129.115L16.9596 114.532L16.9593 70.4939L16.9587 28.5668L16.9559 14.8383C16.9553 12.4112 16.9414 9.96476 16.9722 7.53785C16.9854 6.49449 17.2105 5.42278 17.6323 4.4656C18.3615 2.77343 19.706 1.42129 21.3941 0.682632C22.0196 0.407309 22.6401 0.246191 23.2755 0Z" fill="black"/>
<path d="M33.8972 4.23467C37.1401 4.21727 40.3831 4.21719 43.626 4.23442C44.1179 4.31906 45.0079 4.29886 45.5306 4.28123C45.6457 8.24049 45.5508 12.6571 45.5538 16.6704L45.5558 20.9941C45.5557 21.6385 45.6043 23.1271 45.4554 23.6867C41.6056 21.2533 41.5071 21.1947 37.6606 23.6076C36.4169 24.4023 35.1629 25.1807 33.8989 25.9428C33.942 23.5821 33.9109 21.0443 33.8727 18.676C33.8544 17.5419 32.8442 16.9964 31.8233 16.7842C31.8015 14.9713 31.7942 13.1583 31.8014 11.3453C34.4015 10.8924 33.8799 8.84665 33.9089 6.85045C33.9215 5.98249 33.9003 5.10261 33.8972 4.23467Z" fill="#FE646F"/>
<path d="M43.626 4.23442C45.4474 4.2209 47.2688 4.22023 49.0903 4.23242L49.0821 25.9398C47.8668 25.1991 46.6578 24.448 45.4554 23.6867C45.6043 23.1271 45.5558 21.6385 45.5558 20.9941L45.5538 16.6704C45.5508 12.6571 45.6458 8.24049 45.5306 4.28123C45.0079 4.29886 44.1179 4.31906 43.626 4.23442Z" fill="#FE4855"/>
<path d="M105.265 7.26357C105.648 7.45123 108.053 9.9391 108.493 10.3732L115.554 17.365C116.907 18.7079 118.393 20.2357 119.78 21.5209C116.751 21.5784 113.619 21.5009 110.582 21.5339C109.65 21.544 106.236 21.5933 105.5 21.4197C105.136 20.9984 105.263 16.8384 105.264 16.009L105.265 7.26357Z" fill="#D0DDE3"/>
<path d="M33.0832 104.578C33.5441 104.531 34.6084 104.553 35.0989 104.553L38.8585 104.55L42.8996 104.551C44.2249 104.552 45.9785 104.415 47.1009 105.252C48.7245 106.464 48.5055 108.325 48.5071 110.114L48.5092 113.967L48.5074 117.743C48.5064 118.603 48.5274 119.384 48.4293 120.241C48.229 121.989 46.9773 123.081 45.2444 123.287C43.0611 123.414 40.4041 123.248 38.1725 123.312C36.4651 123.217 34.6475 123.45 32.9499 123.263C29.5291 122.887 29.7401 119.991 29.7379 117.623L29.7356 113.575C29.7354 112.012 29.7584 110.403 29.7387 108.845C29.7087 106.475 30.5163 104.918 33.0832 104.578Z" fill="black"/>
<path d="M35.1889 108.789L44.2668 108.787C44.3118 112.212 44.2467 115.656 44.2746 119.081L34.9766 119.081C34.6392 119.079 34.3019 119.081 33.9645 119.085L33.9611 108.785C34.3703 108.783 34.7797 108.784 35.1889 108.789Z" fill="#89C9FE"/>
<path d="M35.1889 108.789L44.2668 108.787C44.3118 112.212 44.2467 115.656 44.2746 119.081L34.9766 119.081C35.3758 118.981 39.9812 119.019 40.7566 119.017C40.8182 115.765 40.7959 112.077 40.7478 108.823C39.3504 108.865 36.4974 108.979 35.1889 108.789Z" fill="#5FB7FE"/>
<path d="M33.228 74.913C35.3308 74.8034 37.8889 74.9531 40.0538 74.8983C41.8311 74.9974 43.7714 74.7316 45.53 74.9784C48.7595 75.4312 48.5052 78.4336 48.5064 80.6801L48.5047 84.813C48.5032 86.4274 48.498 88.0516 48.5022 89.6646C48.5078 91.8098 47.4737 93.3947 45.1988 93.5986C42.9743 93.7448 40.3443 93.6942 38.0507 93.6415C33.7383 93.5416 29.47 94.8157 29.7389 88.6605C29.8902 85.1983 29.53 81.2166 29.8529 77.7157C29.9835 76.012 31.6545 75.0171 33.228 74.913Z" fill="black"/>
<path d="M34.9059 79.1262L44.2787 79.136L44.2744 89.4108C41.6336 89.4115 38.4052 89.4916 35.8053 89.4087L33.9647 89.4157L33.96 79.1346L34.9059 79.1262Z" fill="#89C9FE"/>
<path d="M34.9059 79.1262L44.2787 79.136L44.2744 89.4108C41.6336 89.4115 38.4053 89.4916 35.8053 89.4087C36.0278 89.299 40.1946 89.344 40.7553 89.344C40.7982 88.2436 40.7616 86.8753 40.7615 85.7594L40.7516 79.1894L37.0603 79.1972C36.526 79.1979 35.3922 79.2253 34.9059 79.1262Z" fill="#5FB7FE"/>
<path d="M50.3552 48.478C55.0688 48.016 59.2667 51.4573 59.7383 56.1699C60.2099 60.8826 56.7771 65.0874 52.0655 65.5686C47.3402 66.0511 43.1206 62.6064 42.6477 57.8802C42.1747 53.1539 45.628 48.9414 50.3552 48.478Z" fill="black"/>
<path d="M50.5858 52.7034C52.9625 52.3698 55.1628 54.0175 55.5114 56.3922C55.8599 58.7668 54.226 60.9774 51.8536 61.3408C49.4601 61.7075 47.2255 60.0559 46.8738 57.66C46.5221 55.2643 48.1878 53.0401 50.5858 52.7034Z" fill="#F8F9F9"/>
<path d="M105.459 48.3939C110.2 48.2448 114.164 51.9675 114.312 56.7084C114.46 61.4491 110.737 65.4123 105.996 65.5599C101.256 65.7075 97.2942 61.9852 97.1459 57.2454C96.9975 52.5056 100.72 48.543 105.459 48.3939Z" fill="black"/>
<path d="M105.457 52.6236C107.864 52.4737 109.936 54.3036 110.084 56.7101C110.233 59.1165 108.402 61.1875 105.995 61.3349C103.591 61.4823 101.521 59.6529 101.373 57.2482C101.224 54.8435 103.053 52.7734 105.457 52.6236Z" fill="#F8F9F9"/>
<path d="M61.0447 106.832C63.5081 106.729 66.673 106.82 69.1981 106.82L85.2497 106.821H102.587C105.616 106.818 108.662 106.805 111.69 106.826C112.153 106.857 112.857 106.876 113.243 107.141C114.275 107.85 114.604 109.086 113.857 110.137C113.411 110.764 113.008 110.9 112.307 111.027C109.468 111.134 106.062 111.051 103.187 111.05L85.9296 111.048L69.7776 111.049C66.9496 111.05 64.1758 111.05 61.2932 111.04C59.2845 111.033 58.1613 109.481 59.2931 107.62C59.6177 107.085 60.4329 106.895 61.0447 106.832Z" fill="black"/>
<path d="M61.0379 77.1602C63.564 77.0555 66.8762 77.1504 69.4684 77.1504L86.1511 77.1511L103.17 77.1504C106.05 77.1497 108.932 77.1384 111.812 77.1595C112.623 77.187 113.165 77.2495 113.723 77.9041C114.476 78.7859 114.417 79.6711 113.769 80.5809C113.408 81.0886 112.875 81.2777 112.281 81.3684C108.626 81.4219 104.839 81.3741 101.173 81.3734L79.7407 81.372L67.3549 81.3748C65.2568 81.3762 63.2206 81.379 61.0618 81.3586C59.1267 81.341 58.2133 79.4679 59.3297 77.8908C59.6741 77.4049 60.4418 77.2059 61.0379 77.1602Z" fill="black"/>
<path d="M83.9679 48.6125C85.3917 48.5868 86.8676 48.5408 88.2823 48.6961C93.0951 49.2245 95.0344 54.1631 94.4304 58.471C94.0837 60.9459 93.1521 62.7039 91.1693 64.2326C89.0916 65.5746 87.724 65.3576 85.4402 65.4318C81.6202 65.5559 81.6996 64.5895 81.6961 61.3482L81.6912 57.2123L81.6785 52.8736C81.6743 50.7864 81.2644 48.8781 83.9679 48.6125Z" fill="black"/>
<path d="M85.9268 52.8188C88.4482 52.8012 89.8003 53.0741 90.2355 55.9547C90.4648 57.4743 90.2384 59.0036 89.313 60.2693C88.2724 61.3595 87.2944 61.1936 85.9219 61.184L85.9268 52.8188Z" fill="#F8F9F9"/>
<path d="M61.1497 87.1432C63.4558 87.0855 65.9874 87.1334 68.3104 87.1341L81.8163 87.1312L91.0329 87.1299C92.3105 87.1299 96.5602 86.9077 97.4742 87.5538C98.8952 88.5586 98.5929 91.1714 96.2248 91.3514C93.8707 91.4231 91.1798 91.3627 88.797 91.3627L74.6248 91.3605L65.6703 91.3641C64.2933 91.3655 62.0345 91.4386 60.7253 91.3198C58.3668 91.1053 57.8763 87.4589 61.1497 87.1432Z" fill="black"/>
<path d="M60.411 116.876C61.7824 116.774 63.9113 116.833 65.3346 116.833L74.1994 116.834H88.1902C90.7172 116.833 93.2506 116.824 95.7776 116.839C96.1889 116.871 96.6705 116.829 97.0552 116.992C98.2174 117.481 98.6548 118.882 98.0655 119.975C97.7759 120.514 97.2337 120.824 96.653 120.999C95.5631 121.122 93.4193 121.059 92.2388 121.059L84.3237 121.058L69.3975 121.06C66.8282 121.061 64.2528 121.065 61.6838 121.058C61.3554 121.016 60.4843 121.066 60.1963 120.914C58.2114 119.869 58.435 117.709 60.411 116.876Z" fill="black"/>
<path d="M31.4923 48.459C32.8939 48.3927 34.4734 48.4509 35.8964 48.4329C37.0481 48.4727 38.3143 48.3398 39.4464 48.5236C41.0725 48.7875 41.5487 51.0038 40.4043 52.0665C39.6359 52.78 38.4384 52.6719 37.4769 52.6667C37.4439 56.2906 37.5462 60.0173 37.4613 63.6284C37.0655 66.2717 33.7112 66.2035 33.3149 63.8883C33.1606 62.9863 33.2464 61.1241 33.2468 60.153L33.2508 52.6671C32.3606 52.6804 31.3358 52.7557 30.5774 52.2286C28.9424 51.0924 29.6133 48.8357 31.4923 48.459Z" fill="black"/>
<path d="M66.7189 54.9328C68.9605 54.8219 71.3173 54.9772 73.5694 54.9115C74.1839 54.8935 75.2231 54.8925 75.7533 55.1893C76.2736 55.4857 76.6498 55.9827 76.7939 56.5643C77.1265 57.8987 76.1555 58.8606 74.9151 59.128C72.2995 59.2367 69.5264 59.1043 66.8998 59.1192C64.3979 59.1333 63.8472 55.3677 66.7189 54.9328Z" fill="black"/>
</svg>
